<?xml version="1.0" encoding="utf-8"?>
<!-- Generator: Adobe Illustrator 21.1.0, SVG Export Plug-In . SVG Version: 6.00 Build 0)  -->
<svg version="1.1" id="Capa_1" xmlns="http://www.w3.org/2000/svg" xmlns:xlink="http://www.w3.org/1999/xlink" x="0px" y="0px"
	 viewBox="0 0 708.7 708.7" style="enable-background:new 0 0 708.7 708.7;" xml:space="preserve">
<style type="text/css">
	.st0{fill:#FFFFFF;}
</style>
<g>
	<g>
		<path class="st0" d="M308.3,453.1c-8.4-5.7-18.7-8.5-28.6-11.3c-2.2-0.6-4.3-1.2-6.5-1.8c-12.2-3.6-20-10.7-20.9-18.9
			c-0.7-6.7,3.3-13.1,10.8-17.2c1.6-0.9,3.3-1.5,5.2-2v14.8c0,5.5,4.5,10,10,10c5.5,0,10-4.5,10-10v-14.1c5.8,1.4,11.5,3.7,16.1,6.6
			c4.7,2.9,10.9,1.3,13.7-3.4c2.9-4.7,1.3-10.9-3.4-13.7c-7.4-4.5-16.7-8.1-26.5-9.9V375c0-5.5-4.5-10-10-10c-5.5,0-10,4.5-10,10
			v6.6c-5.2,0.7-10.3,2.3-14.8,4.8c-14.5,8-22.6,22.2-21,36.9c1.8,16.5,14.9,30,35.1,35.9c0.2,0.1,0.5,0.1,0.7,0.2v47
			c-8.3-1.4-15.1-4.9-17.3-9.1c-2.5-4.9-8.6-6.8-13.4-4.3c-4.9,2.5-6.8,8.6-4.3,13.4c6.1,11.7,20.1,18.3,35,20v10.4
			c0,5.5,4.5,10,10,10c5.5,0,10-4.5,10-10v-11.1c2.1-0.4,4.1-0.9,6-1.5c15.7-4.9,27.3-18.5,29.7-34.7
			C326.1,474.7,320.2,461.1,308.3,453.1L308.3,453.1z M304.2,486.6c-1.3,8.6-7.5,15.9-15.9,18.5c0,0,0,0,0,0l0-39.8
			c3.4,1.2,6.4,2.6,8.9,4.3C304.9,474.9,304.7,483.2,304.2,486.6L304.2,486.6z M304.2,486.6"/>
		<path class="st0" d="M278.3,326.2c-3.4,0-6.7,0.1-10,0.4V154.1c0-10.4-7.3-25.1-42.1-36c-23.5-7.4-54.7-11.4-87.6-11.4
			c-33,0-64.1,4.1-87.6,11.4c-34.8,10.9-42.1,25.6-42.1,36v301.8c0,10.4,7.3,25.1,42.1,36c23.6,7.4,54.7,11.4,87.6,11.4
			c6.3,0,12.6-0.2,18.8-0.5c18.8,48.4,65.9,82.8,120.9,82.8c71.5,0,129.7-58.2,129.7-129.7S349.8,326.2,278.3,326.2L278.3,326.2z
			 M56.9,137.2c21.7-6.8,50.7-10.5,81.7-10.5c31,0,60,3.7,81.7,10.5c22.9,7.2,28.1,14.8,28.1,16.9c0,2.1-5.2,9.8-28.1,16.9
			c-21.7,6.8-50.7,10.5-81.7,10.5c-31,0-60-3.7-81.7-10.5c-22.9-7.2-28.1-14.8-28.1-16.9C28.9,152,34,144.3,56.9,137.2L56.9,137.2z
			 M28.9,180.8c5.7,3.2,13,6.4,22.1,9.2c23.6,7.4,54.7,11.4,87.6,11.4c33,0,64.1-4,87.6-11.4c9.2-2.9,16.4-6,22.1-9.2v23.6
			c0,2.1-5.2,9.8-28.1,16.9c-21.7,6.8-50.7,10.5-81.7,10.5c-14.4,0-28.4-0.8-41.7-2.4c-5.5-0.7-10.4,3.2-11.1,8.7
			c-0.7,5.5,3.2,10.4,8.7,11.1c14.1,1.7,28.9,2.5,44.1,2.5c33,0,64.1-4.1,87.6-11.4c9.2-2.9,16.4-6,22.1-9.2V305
			c0,2.1-5.2,9.8-28.1,16.9c-21.7,6.8-50.7,10.5-81.7,10.5c-31,0-60-3.7-81.7-10.5C34,314.8,28.9,307.1,28.9,305v-23.6
			c5.7,3.2,13,6.4,22.1,9.2c23.6,7.4,54.7,11.4,87.6,11.4c19.6,0,38.4-1.4,55.9-4.2c5.4-0.9,9.2-6,8.3-11.4c-0.9-5.4-6-9.1-11.4-8.3
			c-16.2,2.6-34.4,3.9-52.7,3.9c-31,0-60-3.7-81.7-10.5c-22.9-7.2-28.1-14.8-28.1-16.9V180.8z M138.6,483.3c-31,0-60-3.7-81.7-10.5
			C34,465.6,28.9,458,28.9,455.9v-23.6c5.7,3.2,13,6.4,22.1,9.2c23.5,7.4,54.7,11.4,87.6,11.4c3.3,0,6.7,0,10-0.1c0,1,0,2,0,3
			c0,1.1,0,2.3,0,3.4c0,0.4,0,0.7,0,1.1c0,0.8,0.1,1.6,0.1,2.3c0,0.4,0.1,0.8,0.1,1.3c0,0.7,0.1,1.4,0.1,2.1c0,0.5,0.1,0.9,0.1,1.4
			c0.1,0.6,0.1,1.3,0.2,1.9c0.1,0.5,0.1,1,0.2,1.5c0.1,0.6,0.1,1.2,0.2,1.8c0.1,0.6,0.2,1.1,0.2,1.7c0.1,0.5,0.2,1.1,0.2,1.6
			c0.1,0.6,0.2,1.2,0.3,1.8c0.1,0.5,0.2,1,0.2,1.4c0.1,0.7,0.3,1.3,0.4,2c0.1,0.4,0.2,0.8,0.2,1.2c0.1,0.2,0.1,0.5,0.1,0.7
			C147.2,483.2,142.9,483.3,138.6,483.3L138.6,483.3z M160,402.5C160,402.5,160,402.5,160,402.5c-0.4,0.8-0.7,1.6-1,2.4
			c-0.1,0.2-0.2,0.4-0.3,0.7c-0.2,0.4-0.3,0.7-0.5,1.1c-3.4,8.3-6,17.1-7.6,26.1c-4,0.1-8,0.2-12,0.2c-31,0-60-3.7-81.7-10.5
			c-22.9-7.2-28.1-14.8-28.1-16.9v-73.9c5.7,3.2,13,6.4,22.1,9.2c23.5,7.4,54.7,11.4,87.6,11.4c26.3,0,51.3-2.6,72.4-7.3
			c-11.7,7.1-22.3,16.1-31.4,26.7c-2.6,3.1-5.1,6.2-7.4,9.5c-10.9,1-22.2,1.5-33.7,1.5c-14.4,0-28.4-0.8-41.7-2.4
			c-5.5-0.7-10.4,3.2-11.1,8.7c-0.7,5.5,3.2,10.4,8.7,11.1c14.1,1.7,28.9,2.5,44.1,2.5c7.3,0,14.6-0.2,21.7-0.6
			C160.2,402.2,160.1,402.4,160,402.5L160,402.5z M278.3,565.6c-49.2,0-90.9-32.5-104.8-77.1c-0.2-0.5-0.3-1.1-0.5-1.6
			c-0.3-0.9-0.5-1.8-0.8-2.7c-0.2-0.6-0.3-1.2-0.5-1.9c-0.1-0.5-0.3-1-0.4-1.5c-0.2-1.1-0.5-2.1-0.7-3.2c-0.1-0.4-0.2-0.9-0.2-1.3
			c-0.2-0.9-0.3-1.8-0.5-2.8c0-0.3-0.1-0.6-0.1-0.9c-0.2-1.2-0.3-2.4-0.5-3.5c0-0.3-0.1-0.7-0.1-1c-0.1-1.1-0.2-2.3-0.3-3.4
			c0-0.1,0-0.2,0-0.3c-0.1-1.2-0.2-2.5-0.2-3.7c0-0.3,0-0.6,0-0.9c0-1.3-0.1-2.5-0.1-3.8c0-1.5,0-3,0.1-4.5c0-0.2,0-0.5,0-0.7
			c0.1-1.4,0.2-2.7,0.3-4.1c0-0.4,0.1-0.8,0.1-1.3c0.1-1.2,0.3-2.4,0.4-3.6c0.1-0.6,0.2-1.3,0.3-1.9c0.1-0.6,0.2-1.2,0.3-1.7
			c0.2-1.4,0.5-2.8,0.8-4.2c0,0,0,0,0-0.1c8.2-40.1,38.3-72.2,77.2-83.4c0.2,0,0.3-0.1,0.5-0.1c0.9-0.3,1.8-0.5,2.7-0.7
			c1-0.3,2.1-0.5,3.1-0.7c0.4-0.1,0.8-0.2,1.2-0.3c1.4-0.3,2.8-0.6,4.2-0.8c6-1,12.2-1.6,18.6-1.6c60.5,0,109.7,49.2,109.7,109.7
			C388,516.4,338.8,565.6,278.3,565.6L278.3,565.6z M278.3,565.6"/>
		<path class="st0" d="M59.1,242.7c1.5,0.4,3.1,0.8,4.7,1.2c0.8,0.2,1.6,0.3,2.3,0.3c4.5,0,8.6-3.1,9.7-7.7c1.3-5.4-2-10.7-7.4-12
			c-1.5-0.3-2.9-0.7-4.3-1.1c-5.3-1.4-10.8,1.8-12.2,7.1C50.6,235.8,53.8,241.3,59.1,242.7L59.1,242.7z M59.1,242.7"/>
		<path class="st0" d="M221.2,291.7c0.9,0,1.9-0.1,2.8-0.4c2-0.6,3.9-1.2,5.9-1.9c5.2-1.8,8-7.4,6.2-12.7c-1.8-5.2-7.4-8-12.7-6.2
			c-1.7,0.6-3.4,1.1-5.2,1.6c-5.3,1.6-8.3,7.1-6.7,12.4C212.9,288.9,216.9,291.7,221.2,291.7L221.2,291.7z M221.2,291.7"/>
		<path class="st0" d="M68.5,375.4c-1.5-0.3-2.9-0.7-4.3-1.1c-5.3-1.4-10.8,1.8-12.2,7.1c-1.4,5.3,1.8,10.8,7.1,12.2
			c1.5,0.4,3.1,0.8,4.7,1.2c0.8,0.2,1.6,0.3,2.3,0.3c4.5,0,8.6-3.1,9.7-7.7C77.1,382,73.8,376.6,68.5,375.4L68.5,375.4z M68.5,375.4
			"/>
	</g>
	<path class="st0" d="M654.9,223.1c-25.4,0-46.1,20.7-46.1,46.1c0,9.3,2.8,17.9,7.5,25.2l-49.8,49.8c-7.2-4.7-15.9-7.5-25.2-7.5
		c-9.6,0-18.6,3-25.9,8l-50.4-50.4c4.7-7.2,7.5-15.9,7.5-25.2c0-25.4-20.7-46.1-46.1-46.1c-25.4,0-46.1,20.7-46.1,46.1
		c0,9.3,2.8,17.9,7.5,25.2l-49,49l13.5,13.5l49-49c7.2,4.7,15.9,7.5,25.2,7.5s17.9-2.8,25.2-7.5l50.6,50.6c-4.4,7.1-7,15.4-7,24.4
		c0,25.4,20.7,46.1,46.1,46.1c25.4,0,46.1-20.7,46.1-46.1c0-9.3-2.8-17.9-7.5-25.2l49.8-49.8c7.2,4.7,15.9,7.5,25.2,7.5
		c25.4,0,46.1-20.7,46.1-46.1C701,243.8,680.3,223.1,654.9,223.1z M426.3,296.3c-14.9,0-27.1-12.1-27.1-27.1
		c0-14.9,12.1-27.1,27.1-27.1c14.9,0,27.1,12.1,27.1,27.1C453.3,284.1,441.2,296.3,426.3,296.3z M541.2,409.9
		c-14.9,0-27.1-12.1-27.1-27.1c0-14.9,12.1-27.1,27.1-27.1c14.9,0,27.1,12.1,27.1,27.1C568.3,397.8,556.1,409.9,541.2,409.9z
		 M654.9,296.3c-14.9,0-27.1-12.1-27.1-27.1c0-14.9,12.1-27.1,27.1-27.1c14.9,0,27.1,12.1,27.1,27.1
		C681.9,284.1,669.8,296.3,654.9,296.3z"/>
	<path class="st0" d="M403,340.2l-19.4,19.4c-3.7,3.7-3.7,9.8,0,13.5c1.9,1.9,4.3,2.8,6.7,2.8c2.4,0,4.9-0.9,6.7-2.8l19.4-19.4
		c3.7-3.7,3.7-9.8,0-13.5C412.8,336.5,406.8,336.5,403,340.2z"/>
	<path class="st0" d="M557.7,315c2.4,0,4.9-0.9,6.7-2.8l19.4-19.4c3.7-3.7,3.7-9.8,0-13.5c-3.7-3.7-9.8-3.7-13.5,0L551,298.7
		c-3.7,3.7-3.7,9.8,0,13.5C552.8,314,555.3,315,557.7,315z"/>
</g>
</svg>
