<?xml version="1.0" encoding="utf-8"?>
<!-- Generator: Adobe Illustrator 21.1.0, SVG Export Plug-In . SVG Version: 6.00 Build 0)  -->
<svg version="1.1" id="Capa_1" xmlns="http://www.w3.org/2000/svg" xmlns:xlink="http://www.w3.org/1999/xlink" x="0px" y="0px"
	 viewBox="0 0 708.7 708.7" style="enable-background:new 0 0 708.7 708.7;" xml:space="preserve">
<style type="text/css">
	.st0{fill:#FFFFFF;}
</style>
<g>
	<g>
		<path class="st0" d="M151.7,669.5c23.9,0,43.3-19.4,43.3-43.2c0-19.9-13.5-36.7-31.9-41.6v-32.8h100.5v32.4
			c-18.9,4.6-33,21.6-33,42c0,23.9,19.4,43.2,43.3,43.2c23.9,0,43.3-19.4,43.3-43.2c0-20-13.8-36.9-32.2-41.7v-81.2
			c18.5-4.9,32.2-21.7,32.2-41.7c0-20-13.8-36.9-32.2-41.7v-28.2h100.5v28c-18.7,4.8-32.6,21.7-32.6,41.8
			c0,23.9,19.4,43.2,43.3,43.2c23.9,0,43.2-19.4,43.2-43.2c0-20.2-13.9-37.1-32.6-41.8v-28.2h100.5v28.2
			c-18.5,4.9-32.2,21.7-32.2,41.7c0,20,13.8,36.9,32.2,41.7v27.3H396.1c-5.9,0-10.7,4.8-10.7,10.7v43.2
			c-18.7,4.8-32.6,21.7-32.6,41.8c0,23.9,19.4,43.3,43.3,43.3c23.9,0,43.2-19.4,43.2-43.3c0-20.2-13.9-37.1-32.6-41.8v-32.6h100.5
			v32.7c-18.5,4.9-32.2,21.7-32.2,41.7c0,23.9,19.4,43.3,43.3,43.3c23.9,0,43.2-19.4,43.2-43.3c0-20.3-14.1-37.4-33-42v-32.4H629
			v32.8c-18.3,5.1-31.9,21.7-31.9,41.6c0,23.9,19.4,43.3,43.2,43.3c23.9,0,43.3-19.4,43.3-43.3c0-20.4-14.2-37.6-33.4-42.1v-43
			c0-5.9-4.8-10.7-10.7-10.7H528.5v-27.2c18.9-4.6,33-21.6,33-42c0-20.3-14.1-37.4-33-42v-38.4c0-5.9-4.8-10.7-10.7-10.7H406.8v-26
			c18.7-4.8,32.6-21.7,32.6-41.8c0-23.9-19.4-43.3-43.2-43.3c-23.9,0-43.3,19.4-43.3,43.3c0,20.2,13.9,37.1,32.6,41.8v26H274.3
			c-5.9,0-10.7,4.8-10.7,10.7v38.7c-18.9,4.6-33,21.6-33,42c0,20.3,14.1,37.4,33,42v27.2H152.5c-5.9,0-10.7,4.8-10.7,10.7v42.9
			c-19,4.5-33.4,21.6-33.4,42.1C108.5,650.1,127.9,669.5,151.7,669.5L151.7,669.5z M418.1,461.5c0,12.1-9.9,22-22,22
			c-12.1,0-22-9.9-22-22c0-12.1,9.9-22,22-22C408.2,439.5,418.1,449.4,418.1,461.5L418.1,461.5z M418.1,626.3c0,12.1-9.9,22-22,22
			c-12.1,0-22-9.9-22-22c0-12.1,9.9-22,22-22C408.2,604.3,418.1,614.2,418.1,626.3L418.1,626.3z M662.3,626.3c0,12.1-9.9,22-22,22
			c-12.1,0-22-9.9-22-22c0-12.1,9.9-22,22-22C652.5,604.3,662.3,614.2,662.3,626.3L662.3,626.3z M540.2,626.3c0,12.1-9.9,22-22,22
			c-12.1,0-22-9.9-22-22c0-12.1,9.9-22,22-22C530.3,604.3,540.2,614.2,540.2,626.3L540.2,626.3z M540.2,461.5c0,12.1-9.9,22-22,22
			c-12.1,0-22-9.9-22-22c0-12.1,9.9-22,22-22C530.3,439.5,540.2,449.4,540.2,461.5L540.2,461.5z M374.1,302.4c0-12.1,9.9-22,22-22
			c12.1,0,22,9.9,22,22c0,12.1-9.9,22-22,22C384,324.3,374.1,314.5,374.1,302.4L374.1,302.4z M295.8,626.3c0,12.1-9.9,22-22,22
			c-12.1,0-22-9.9-22-22c0-12.1,9.9-22,22-22C286,604.3,295.8,614.2,295.8,626.3L295.8,626.3z M252,461.5c0-12.1,9.9-22,22-22
			c12.1,0,22,9.9,22,22c0,12.1-9.9,22-22,22C261.9,483.4,252,473.6,252,461.5L252,461.5z M151.7,604.3c12.1,0,22,9.9,22,22
			c0,12.1-9.9,22-22,22c-12.1,0-22-9.9-22-22C129.9,614.2,139.6,604.3,151.7,604.3L151.7,604.3z M151.7,604.3"/>
	</g>
	<g>
		<path class="st0" d="M163.2,165.3h111c5,0,9,4,9,9c0,5-4,9-9,9h-102v92.9h92.9v-64.8c0-5,4-9,9-9c5,0,9,4,9,9v73.8c0,5-4,9-9,9
			h-111c-5,0-9-4-9-9v-111C154.2,169.3,158.2,165.3,163.2,165.3z"/>
		<path class="st0" d="M197.6,229.8c0,2.4-1,4.7-2.7,6.4c-1.7,1.7-4,2.6-6.4,2.6c-2.4,0-4.7-1-6.4-2.6c-1.7-1.7-2.6-4-2.6-6.4
			c0-2.4,1-4.7,2.6-6.4c1.7-1.7,4-2.7,6.4-2.7c2.4,0,4.7,1,6.4,2.7C196.7,225.1,197.6,227.5,197.6,229.8z"/>
		<path class="st0" d="M224.3,223.4c1.7,1.7,2.6,4,2.6,6.4c0,2.4-1,4.7-2.6,6.4c-1.7,1.7-4,2.6-6.4,2.6c-2.4,0-4.7-1-6.4-2.6
			c-1.7-1.7-2.6-4-2.6-6.4c0-2.4,1-4.7,2.6-6.4c1.7-1.7,4-2.7,6.4-2.7C220.3,220.8,222.6,221.8,224.3,223.4z"/>
		<path class="st0" d="M253.5,223.4c1.7,1.7,2.7,4,2.7,6.4c0,2.4-1,4.7-2.7,6.4c-1.7,1.7-4,2.6-6.4,2.6c-2.4,0-4.7-1-6.4-2.6
			c-1.7-1.7-2.7-4-2.7-6.4c0-2.4,1-4.7,2.7-6.4c1.7-1.7,4-2.7,6.4-2.7C249.5,220.8,251.9,221.8,253.5,223.4z"/>
		<path class="st0" d="M247.2,209.6c-2.4,0-4.7-1-6.4-2.6c-1.7-1.7-2.7-4-2.7-6.4c0-2.4,1-4.7,2.7-6.4c1.7-1.7,4-2.7,6.4-2.7
			c2.4,0,4.7,1,6.4,2.7c1.7,1.7,2.7,4,2.7,6.4c0,2.4-1,4.7-2.7,6.4C251.9,208.6,249.5,209.6,247.2,209.6z"/>
		<path class="st0" d="M224.3,252.7c1.7,1.7,2.6,4,2.6,6.4c0,2.4-1,4.7-2.6,6.4c-1.7,1.7-4,2.6-6.4,2.6c-2.4,0-4.7-1-6.4-2.6
			c-1.7-1.7-2.6-4-2.6-6.4c0-2.4,1-4.7,2.6-6.4c1.7-1.7,4-2.6,6.4-2.6C220.3,250.1,222.6,251,224.3,252.7z"/>
		<path class="st0" d="M253.5,252.7c1.7,1.7,2.7,4,2.7,6.4c0,2.4-1,4.7-2.7,6.4c-1.7,1.7-4,2.6-6.4,2.6c-2.4,0-4.7-1-6.4-2.6
			c-1.7-1.7-2.7-4-2.7-6.4c0-2.4,1-4.7,2.7-6.4c1.7-1.7,4-2.6,6.4-2.6C249.5,250.1,251.9,251,253.5,252.7z"/>
		<path class="st0" d="M197.6,259.1c0,2.4-1,4.7-2.6,6.4c-1.7,1.7-4,2.6-6.4,2.6c-2.4,0-4.7-1-6.4-2.6c-1.7-1.7-2.6-4-2.6-6.4
			c0-2.4,1-4.7,2.6-6.4c1.7-1.7,4-2.6,6.4-2.6c2.4,0,4.7,1,6.4,2.6C196.7,254.4,197.6,256.7,197.6,259.1z"/>
		<path class="st0" d="M224.3,194.2c1.7,1.7,2.6,4,2.6,6.4c0,2.4-1,4.7-2.6,6.4c-1.7,1.7-4,2.6-6.4,2.6c-2.4,0-4.7-1-6.4-2.6
			c-1.7-1.7-2.6-4-2.6-6.4c0-2.4,1-4.7,2.6-6.4c1.7-1.7,4-2.7,6.4-2.7C220.2,191.5,222.6,192.5,224.3,194.2z"/>
		<path class="st0" d="M197.6,200.5c0,2.4-1,4.7-2.6,6.4c-1.7,1.7-4,2.6-6.4,2.6c-2.4,0-4.7-1-6.4-2.6c-1.7-1.7-2.6-4-2.6-6.4
			c0-2.4,1-4.7,2.6-6.4c1.7-1.7,4-2.7,6.4-2.7c2.4,0,4.7,1,6.4,2.7C196.7,195.8,197.6,198.2,197.6,200.5z"/>
		<path class="st0" d="M271.2,38.6c-15.5,0-28.2,12.6-28.2,28.2c0,15.5,12.6,28.2,28.2,28.2c15.5,0,28.2-12.6,28.2-28.2
			C299.4,51.2,286.8,38.6,271.2,38.6z M271.2,56.6c5.6,0,10.1,4.5,10.1,10.1c0,5.6-4.5,10.1-10.1,10.1c-5.6,0-10.1-4.5-10.1-10.1
			C261.1,61.2,265.6,56.6,271.2,56.6z"/>
		<path class="st0" d="M198.2,372c1.8-1.8,2.6-4.1,2.6-6.4c0-2.3-0.9-4.6-2.6-6.4l-12.8-12.8v-20.7h103.3
			c14.3,0,25.9-11.6,25.9-25.9v-47.2h20.5l27.4,27.4l13.8-11.9l-31-30.9c-1.7-1.7-4-2.6-6.4-2.6h-24.2v-74.8
			c0-14.3-11.6-25.9-25.9-25.9h-5.5v-21.1c0-5-4-9-9-9c-5,0-9,4-9,9v21.1H148.7c-14.3,0-25.9,11.6-25.9,25.9v28.5H99.1l-25.6-25.6
			c4.8-5.1,7.8-11.9,7.8-19.5c0-15.5-12.6-28.2-28.2-28.2c-14.6,0-26.6,11.1-28,25.3v5.7c1.4,14.2,13.5,25.3,28,25.3
			c1.1,0,2.2-0.1,3.3-0.2L89,203.7c1.7,1.7,4,2.6,6.4,2.6h27.4v12.4c0,5,4,9,9,9c5,0,9-4,9-9v-59c0-4.3,3.5-7.8,7.8-7.8h140.1
			c4.3,0,7.8,3.5,7.8,7.8v140.1c0,4.3-3.5,7.8-7.8,7.8H148.7c-4.3,0-7.8-3.5-7.8-7.8v-44.2c0-5-4-9-9-9c-5,0-9,4-9,9v5.8H79.9
			c-3.8-11.1-14.3-19.1-26.7-19.1c-14.6,0-26.6,11.1-28,25.3v5.7c1.4,14.2,13.5,25.3,28,25.3c12.4,0,22.9-8,26.7-19.1h42.9v20.3
			c0,14.3,11.6,25.9,25.9,25.9h18.7v24.4c0,2.4,1,4.7,2.6,6.4l15.4,15.4C189,375.5,194.7,375.5,198.2,372z M53.2,280.6
			c-5.6,0-10.1-4.5-10.1-10.1c0-5.6,4.5-10.1,10.1-10.1c5.6,0,10.1,4.5,10.1,10.1C63.3,276.1,58.8,280.6,53.2,280.6z M53.2,153.4
			c-5.6,0-10.1-4.5-10.1-10.1c0-5.6,4.5-10.1,10.1-10.1c5.6,0,10.1,4.5,10.1,10.1C63.3,148.8,58.8,153.4,53.2,153.4z"/>
	</g>
</g>
</svg>
