<?xml version="1.0" encoding="utf-8"?>
<!-- Generator: Adobe Illustrator 21.1.0, SVG Export Plug-In . SVG Version: 6.00 Build 0)  -->
<svg version="1.1" id="Capa_1" xmlns="http://www.w3.org/2000/svg" xmlns:xlink="http://www.w3.org/1999/xlink" x="0px" y="0px"
	 viewBox="0 0 708.7 708.7" style="enable-background:new 0 0 708.7 708.7;" xml:space="preserve">
<style type="text/css">
	.st0{fill:#FFFFFF;}
</style>
<g>
	<path class="st0" d="M321.5,290.7c-6.9,0-12.8,4.5-15,10.7h-55.3c-2.2-6.2-8.1-10.7-15-10.7c-8.8,0-16,7.2-16,16
		c0,8.8,7.2,16,16,16c6.9,0,12.8-4.5,15-10.7h55.3c2.2,6.2,8.1,10.7,15,10.7c8.8,0,16-7.2,16-16
		C337.5,297.8,330.3,290.7,321.5,290.7z M236.1,312c-2.9,0-5.3-2.4-5.3-5.3c0-2.9,2.4-5.3,5.3-5.3c2.9,0,5.3,2.4,5.3,5.3
		C241.4,309.6,239,312,236.1,312z M321.5,312c-2.9,0-5.3-2.4-5.3-5.3c0-2.9,2.4-5.3,5.3-5.3c2.9,0,5.3,2.4,5.3,5.3
		C326.8,309.6,324.4,312,321.5,312z"/>
	<path class="st0" d="M342.8,338.7c0,8.8,7.2,16,16,16c8.8,0,16-7.2,16-16c0-7-4.5-12.8-10.7-15v-33c0-1.4-0.6-2.8-1.6-3.8
		l-21.4-21.4c-1-1-2.4-1.6-3.8-1.6h-17c-2.2-6.2-8.1-10.7-15-10.7c-8.8,0-16,7.2-16,16c0,8.8,7.2,16,16,16c6.9,0,12.8-4.5,15-10.7
		h14.8l18.2,18.2v30.8C347.3,325.9,342.8,331.7,342.8,338.7z M305.5,274.6c-2.9,0-5.3-2.4-5.3-5.3c0-2.9,2.4-5.3,5.3-5.3
		c2.9,0,5.3,2.4,5.3,5.3C310.8,272.3,308.4,274.6,305.5,274.6z M358.8,333.4c2.9,0,5.3,2.4,5.3,5.3s-2.4,5.3-5.3,5.3
		s-5.3-2.4-5.3-5.3S355.9,333.4,358.8,333.4z"/>
	<path class="st0" d="M374.9,205.2c-8.8,0-16,7.2-16,16c0,8.8,7.2,16,16,16c2.5,0,4.8-0.6,6.9-1.6l51.9,51.9v51.2
		c0,1.4,0.6,2.8,1.6,3.8l10.7,10.7c-1,2.1-1.6,4.4-1.6,6.9c0,8.8,7.2,16,16,16c8.8,0,16-7.2,16-16s-7.2-16-16-16
		c-2.5,0-4.8,0.6-6.9,1.6l-9.2-9.2v-51.2c0-1.4-0.6-2.8-1.6-3.8l-53.4-53.4c1-2.1,1.6-4.4,1.6-6.9
		C390.9,212.4,383.7,205.2,374.9,205.2z M374.9,226.6c-2.9,0-5.3-2.4-5.3-5.3c0-2.9,2.4-5.3,5.3-5.3c2.9,0,5.3,2.4,5.3,5.3
		C380.2,224.2,377.8,226.6,374.9,226.6z M460.3,354.7c2.9,0,5.3,2.4,5.3,5.3s-2.4,5.3-5.3,5.3c-2.9,0-5.3-2.4-5.3-5.3
		S457.3,354.7,460.3,354.7z"/>
	<path class="st0" d="M506.7,254.9l-37.4-37.4c-1-1-2.4-1.6-3.8-1.6h-27.7c-2.2-6.2-8.1-10.7-15-10.7c-8.8,0-16,7.2-16,16
		c0,8.8,7.2,16,16,16c6.9,0,12.8-4.5,15-10.7h25.5l34.2,34.2V281c-6.2,2.2-10.7,8.1-10.7,15c0,8.8,7.2,16,16,16c8.8,0,16-7.2,16-16
		c0-6.9-4.5-12.8-10.7-15v-22.3C508.3,257.2,507.7,255.9,506.7,254.9z M422.9,226.6c-2.9,0-5.3-2.4-5.3-5.3c0-2.9,2.4-5.3,5.3-5.3
		c2.9,0,5.3,2.4,5.3,5.3C428.2,224.2,425.8,226.6,422.9,226.6z M503,301.3c-2.9,0-5.3-2.4-5.3-5.3c0-2.9,2.4-5.3,5.3-5.3
		s5.3,2.4,5.3,5.3C508.3,298.9,505.9,301.3,503,301.3z"/>
	<path class="st0" d="M433.6,494.5v-76.7c6.2-2.2,10.7-8.1,10.7-15c0-8.8-7.2-16-16-16c-6.9,0-12.8,4.5-15,10.7h-55.3
		c-2.2-6.2-8.1-10.7-15-10.7c-6.9,0-12.8,4.5-15,10.7H297l-19.8-19.8c1-2.1,1.6-4.4,1.6-6.9c0-8.8-7.2-16-16-16c-8.8,0-16,7.2-16,16
		s7.2,16,16,16c2.5,0,4.8-0.6,6.9-1.6l21.4,21.4c1,1,2.4,1.6,3.8,1.6h33c2.2,6.2,8.1,10.7,15,10.7c6.9,0,12.8-4.5,15-10.7h55.3
		c1.6,4.5,5.2,8.1,9.7,9.7v76.7c-6.2,2.2-10.7,8.1-10.7,15c0,8.8,7.2,16,16,16c8.8,0,16-7.2,16-16
		C444.2,502.6,439.8,496.7,433.6,494.5z M262.8,376.1c-2.9,0-5.3-2.4-5.3-5.3s2.4-5.3,5.3-5.3s5.3,2.4,5.3,5.3
		S265.7,376.1,262.8,376.1z M342.8,408.1c-2.9,0-5.3-2.4-5.3-5.3c0-2.9,2.4-5.3,5.3-5.3c2.9,0,5.3,2.4,5.3,5.3
		C348.2,405.7,345.8,408.1,342.8,408.1z M428.2,514.8c-2.9,0-5.3-2.4-5.3-5.3c0-2.9,2.4-5.3,5.3-5.3c2.9,0,5.3,2.4,5.3,5.3
		C433.6,512.5,431.2,514.8,428.2,514.8z M428.2,408.1c-2.9,0-5.3-2.4-5.3-5.3c0-2.9,2.4-5.3,5.3-5.3c2.9,0,5.3,2.4,5.3,5.3
		C433.6,405.7,431.2,408.1,428.2,408.1z"/>
	<path class="st0" d="M326.8,205.2c-6.9,0-12.8,4.5-15,10.7h-22.3c-2.9,0-5.3,2.4-5.3,5.3v13.8l-19.8,19.8c-2.1-1-4.4-1.6-6.9-1.6
		c-8.8,0-16,7.2-16,16c0,8.8,7.2,16,16,16c8.8,0,16-7.2,16-16c0-2.5-0.6-4.8-1.6-6.9l21.4-21.4c1-1,1.6-2.4,1.6-3.8v-10.7h17
		c2.2,6.2,8.1,10.7,15,10.7c2.5,0,4.8-0.6,6.9-1.6l62.5,62.5V313c-6.2,2.2-10.7,8.1-10.7,15c0,8.8,7.2,16,16,16c8.8,0,16-7.2,16-16
		c0-6.9-4.5-12.8-10.7-15v-17c0-1.4-0.6-2.8-1.6-3.8l-64.1-64.1c1-2.1,1.6-4.4,1.6-6.9C342.8,212.4,335.6,205.2,326.8,205.2z
		 M257.4,274.6c-2.9,0-5.3-2.4-5.3-5.3c0-2.9,2.4-5.3,5.3-5.3c2.9,0,5.3,2.4,5.3,5.3C262.8,272.3,260.4,274.6,257.4,274.6z
		 M326.8,226.6c-2.9,0-5.3-2.4-5.3-5.3c0-2.9,2.4-5.3,5.3-5.3c2.9,0,5.3,2.4,5.3,5.3C332.1,224.2,329.8,226.6,326.8,226.6z
		 M401.5,322.7c2.9,0,5.3,2.4,5.3,5.3c0,2.9-2.4,5.3-5.3,5.3c-2.9,0-5.3-2.4-5.3-5.3C396.2,325.1,398.6,322.7,401.5,322.7z"/>
	<path class="st0" d="M198.7,274.6v48c0,1.4,0.6,2.8,1.6,3.8l16,16c1,1,2.4,1.6,3.8,1.6h56.5l30.5,30.5c1,1,2.4,1.6,3.8,1.6h65
		c2.2,6.2,8.1,10.7,15,10.7c8.8,0,16-7.2,16-16s-7.2-16-16-16c-6.9,0-12.8,4.5-15,10.7H313l-30.5-30.5c-1-1-2.4-1.6-3.8-1.6h-56.5
		l-12.9-12.9v-43.6l41.2-41.2c2.1,1,4.4,1.6,6.9,1.6c8.8,0,16-7.2,16-16c0-8.8-7.2-16-16-16c-8.8,0-16,7.2-16,16
		c0,2.5,0.6,4.8,1.6,6.9l-42.7,42.7C199.3,271.9,198.7,273.2,198.7,274.6z M390.9,365.4c2.9,0,5.3,2.4,5.3,5.3s-2.4,5.3-5.3,5.3
		c-2.9,0-5.3-2.4-5.3-5.3S387.9,365.4,390.9,365.4z M257.4,215.9c2.9,0,5.3,2.4,5.3,5.3c0,2.9-2.4,5.3-5.3,5.3
		c-2.9,0-5.3-2.4-5.3-5.3C252.1,218.3,254.5,215.9,257.4,215.9z"/>
	<path class="st0" d="M476.3,477.5c0-7-4.5-12.8-10.7-15v-12.6c6.2-2.2,10.7-8.1,10.7-15c0-6.9-4.5-12.8-10.7-15v-4.1l41.1-41.1
		c1-1,1.6-2.4,1.6-3.8v-6.3c6.2-2.2,10.7-8.1,10.7-15c0-8.8-7.2-16-16-16c-2.5,0-4.8,0.6-6.9,1.6l-19.8-19.8v-30.8
		c6.2-2.2,10.7-8.1,10.7-15c0-8.8-7.2-16-16-16c-8.8,0-16,7.2-16,16c0,6.9,4.5,12.8,10.7,15v33c0,1.4,0.6,2.8,1.6,3.8l21.4,21.4
		c-1,2.1-1.6,4.4-1.6,6.9c0,7,4.5,12.8,10.7,15v4.1l-41.1,41.1c-1,1-1.6,2.4-1.6,3.8v6.3c-6.2,2.2-10.7,8.1-10.7,15
		c0,6.9,4.5,12.8,10.7,15v12.6c-6.2,2.2-10.7,8.1-10.7,15c0,8.8,7.2,16,16,16C469.1,493.5,476.3,486.3,476.3,477.5z M470.9,274.6
		c-2.9,0-5.3-2.4-5.3-5.3c0-2.9,2.4-5.3,5.3-5.3c2.9,0,5.3,2.4,5.3,5.3C476.3,272.3,473.9,274.6,470.9,274.6z M503,344
		c2.9,0,5.3,2.4,5.3,5.3c0,2.9-2.4,5.3-5.3,5.3s-5.3-2.4-5.3-5.3C497.6,346.4,500,344,503,344z M460.3,429.4c2.9,0,5.3,2.4,5.3,5.3
		c0,2.9-2.4,5.3-5.3,5.3c-2.9,0-5.3-2.4-5.3-5.3C454.9,431.8,457.3,429.4,460.3,429.4z M454.9,477.5c0-2.9,2.4-5.3,5.3-5.3
		c2.9,0,5.3,2.4,5.3,5.3c0,2.9-2.4,5.3-5.3,5.3C457.3,482.8,454.9,480.4,454.9,477.5z"/>
	<path class="st0" d="M568,335.6c0-114.5-93.1-208.8-207.5-210.2c-0.9,0-1.8,0-2.7,0c-98.8,0-185.1,70.4-205.9,168.2
		c-5.1,24.2-5.8,49.1-1.9,74.1L88.2,478.3l68.4,19.6l0.1,112h91.4v82.3h18.3V591.5h-91.5l-0.1-107.5l-59.4-17l53.7-96l-0.5-3.2
		c-4-23.8-3.6-47.5,1.3-70.5C189,207.1,269,142.9,360.3,143.6c104.5,1.3,189.4,87.4,189.4,191.9l0,33.4c0,73.3-36,141.9-96.5,183.5
		l-4,2.7v137h18.3V564.7c63-45.3,100.5-118.1,100.4-195.8L568,335.6z"/>
	<rect x="344.3" y="17" class="st0" width="21" height="75.9"/>
	
		<rect x="135.2" y="103.6" transform="matrix(0.7071 -0.7071 0.7071 0.7071 -57.4429 144.4543)" class="st0" width="21" height="75.9"/>
	
		<rect x="525.9" y="131.1" transform="matrix(0.707 -0.7072 0.7072 0.707 65.1083 440.2622)" class="st0" width="75.9" height="21"/>
	
		<rect x="553.4" y="521.8" transform="matrix(0.7071 -0.7071 0.7071 0.7071 -230.6792 562.6736)" class="st0" width="21" height="75.9"/>
	<rect x="593.9" y="340.2" class="st0" width="75.9" height="21"/>
	<rect x="39.7" y="340.2" class="st0" width="75.9" height="21"/>
</g>
</svg>
