<?xml version="1.0" encoding="utf-8"?>
<!-- Generator: Adobe Illustrator 21.1.0, SVG Export Plug-In . SVG Version: 6.00 Build 0)  -->
<svg version="1.1" id="Capa_1" xmlns="http://www.w3.org/2000/svg" xmlns:xlink="http://www.w3.org/1999/xlink" x="0px" y="0px"
	 viewBox="0 0 708.7 708.7" style="enable-background:new 0 0 708.7 708.7;" xml:space="preserve">
<style type="text/css">
	.st0{fill:#FFFFFF;}
</style>
<g>
	<g>
		<path class="st0" d="M535.1,468c-38.6,0-69.9,31.4-69.9,69.9c0,38.5,31.4,69.9,69.9,69.9c38.6,0,69.9-31.4,69.9-69.9
			C605.1,499.3,573.7,468,535.1,468L535.1,468z M535.1,579.9c-23.1,0-42-18.8-42-42c0-23.1,18.8-42,42-42c23.1,0,42,18.8,42,42
			C577.1,561,558.3,579.9,535.1,579.9L535.1,579.9z M535.1,579.9"/>
		<path class="st0" d="M675,272.1h-41.8v-83.9H675c7.7,0,14-6.3,14-14s-6.3-14-14-14h-41.8v-27.8c0-30.9-25.1-55.9-55.9-55.9h-28.2
			V34.3c0-7.7-6.3-14-14-14s-14,6.3-14,14v42.2h-83.9V34.3c0-7.7-6.3-14-14-14c-7.7,0-14,6.3-14,14v42.2H297.3V34.3
			c0-7.7-6.3-14-14-14s-14,6.3-14,14v42.2h-83.9V34.3c0-7.7-6.3-14-14-14c-7.7,0-14,6.3-14,14v42.2h-27.8
			c-30.9,0-55.9,25.1-55.9,55.9v27.8H31.6c-7.7,0-14,6.3-14,14s6.3,14,14,14h42.2v83.9H31.6c-7.7,0-14,6.3-14,14s6.3,14,14,14h42.2
			V412H31.6c-7.7,0-14,6.3-14,14c0,7.7,6.3,14,14,14h42.2v83.9H31.6c-7.7,0-14,6.3-14,14c0,7.7,6.3,14,14,14h42.2v28.2
			c0,30.9,25.1,55.9,55.9,55.9h27.8v41.8c0,7.7,6.3,14,14,14c7.7,0,14-6.3,14-14V636h83.9v41.8c0,7.7,6.3,14,14,14s14-6.3,14-14V636
			h61.2c7.7,0,14-6.3,14-14s-6.3-14-14-14h-73.2c-0.7-0.1-1.3-0.4-2-0.4c-0.7,0-1.3,0.3-2,0.4h-108c-0.7-0.1-1.3-0.4-2-0.4
			c-0.7,0-1.3,0.3-2,0.4h-39.8c-15.4,0-28-12.6-28-28V132.4c0-15.4,12.6-28,28-28h447.6c15.4,0,28,12.6,28,28v40.8
			c0,0.3-0.2,0.6-0.2,1c0,0.3,0.2,0.6,0.2,1v110c0,0.3-0.2,0.6-0.2,0.9c0,0.3,0.2,0.6,0.2,1v74.2c0,7.7,6.3,14,14,14
			c7.7,0,14-6.3,14-14v-61.2H675c7.7,0,14-6.3,14-14S682.7,272.1,675,272.1L675,272.1z M675,272.1"/>
		<path class="st0" d="M473.4,160.2l75.7,75.7v108.4c0,7.7,6.3,14,14,14c7.7,0,14-6.3,14-14V230.2c0-3.7-1.5-7.3-4.1-9.9l-83.9-83.9
			c-2.6-2.6-6.2-4.1-9.9-4.1H143.5c-7.7,0-14,6.3-14,14v419.6c0,7.7,6.3,14,14,14h198.1c7.7,0,14-6.3,14-14c0-7.7-6.3-14-14-14
			H157.5V160.2H473.4z M473.4,160.2"/>
		<path class="st0" d="M672.8,480.5c-3.6-1.6-7.6-1.7-11.2-0.1c-6.6,2.9-14,0.6-17.5-5.4c-3.4-6-1.7-13.5,4.1-17.9
			c3.1-2.3,5.1-5.9,5.5-9.8c0.4-3.9-0.8-7.7-3.4-10.7c-22.8-25.9-52.2-43.1-85-49.6c-3.8-0.8-7.9,0.1-11.1,2.5
			c-3.2,2.3-5.2,5.9-5.6,9.8c-0.7,7.2-6.6,12.7-13.5,12.7c-6.9,0-12.8-5.5-13.5-12.7c-0.4-3.9-2.5-7.5-5.6-9.8
			c-3.2-2.4-7.2-3.3-11.1-2.5c-32.8,6.5-62.2,23.7-85,49.6c-2.6,2.9-3.8,6.8-3.4,10.7c0.4,3.9,2.4,7.4,5.5,9.8
			c5.8,4.4,7.5,11.9,4.1,17.9c-3.5,6-10.9,8.3-17.5,5.4c-3.6-1.6-7.7-1.5-11.2,0.1c-3.6,1.6-6.3,4.6-7.5,8.3
			c-5.8,17.2-8.7,33.3-8.7,49.1c0,15.8,2.9,31.9,8.7,49.1c1.3,3.7,4,6.7,7.5,8.3c3.6,1.6,7.6,1.6,11.2,0.1c6.7-2.8,14-0.5,17.5,5.4
			c3.4,6,1.7,13.5-4.1,17.9c-3.1,2.3-5.1,5.9-5.5,9.8c-0.4,3.9,0.8,7.7,3.4,10.7c22.8,25.9,52.2,43.1,85,49.6
			c3.8,0.8,7.9-0.1,11.1-2.5c3.2-2.3,5.2-5.9,5.6-9.8c0.7-7.2,6.5-12.7,13.5-12.7c7,0,12.8,5.4,13.5,12.6c0.4,3.9,2.5,7.5,5.6,9.8
			c2.4,1.8,5.3,2.7,8.3,2.7c0.9,0,1.8-0.1,2.7-0.3c32.8-6.5,62.2-23.7,85-49.6c2.6-2.9,3.8-6.8,3.4-10.7c-0.4-3.9-2.4-7.4-5.5-9.8
			c-5.8-4.4-7.5-11.9-4.1-17.8c3.5-6,10.8-8.3,17.5-5.4c3.6,1.5,7.6,1.5,11.2-0.1c3.6-1.6,6.3-4.6,7.5-8.3
			c5.8-17.2,8.7-33.3,8.7-49.1c0-15.8-2.9-31.9-8.6-49.1C679.1,485.1,676.4,482.1,672.8,480.5L672.8,480.5z M657.3,566.3
			c-15.5-0.7-29.6,7.1-37.4,20.6c-7.8,13.5-7,29.8,0.9,42.6c-14.2,13.4-30.8,23.2-48.9,28.8c-7-13.5-20.9-22.4-36.8-22.4
			c-15.9,0-29.8,9-36.8,22.4c-18.1-5.6-34.7-15.4-48.9-28.8c7.9-12.7,8.6-29.1,0.9-42.6c-7.8-13.5-22.2-21.3-37.4-20.6
			c-2.5-9.9-3.7-19.2-3.7-28.4c0-9.1,1.2-18.6,3.7-28.4c15.1,0.3,29.6-7.1,37.4-20.6c7.8-13.5,7-29.8-0.9-42.6
			c14.2-13.4,30.8-23.2,48.9-28.8c7,13.5,20.9,22.4,36.8,22.4c15.9,0,29.8-9,36.8-22.4c18.1,5.6,34.7,15.4,48.9,28.8
			c-7.9,12.7-8.6,29.1-0.9,42.6c7.8,13.5,21.9,20.8,37.4,20.6c2.5,9.9,3.7,19.2,3.7,28.4C661,547,659.8,556.4,657.3,566.3
			L657.3,566.3z M657.3,566.3"/>
	</g>
	<g>
		<polygon class="st0" points="313.6,347.3 329,331.9 328.5,331.3 313.2,347 		"/>
		<polygon class="st0" points="353.6,387.3 353.6,387.3 369,371.9 		"/>
		<polygon class="st0" points="302.8,357.7 283.5,377.4 303,357.9 		"/>
		<path class="st0" d="M432.8,271.3l-36.7-13.2c-3.9-1.4-8.2,0.6-9.6,4.5l-8.9,24.7c-0.7,1.9-0.6,3.9,0.3,5.7
			c0.8,1.8,2.4,3.2,4.2,3.8l36.7,13.2c0.8,0.3,1.7,0.4,2.5,0.4c3.1,0,5.9-1.9,7-4.9l8.9-24.7c0.7-1.9,0.6-3.9-0.3-5.7
			C436.2,273.4,434.7,272,432.8,271.3z M416.9,293.5l-22.7-8.1l3.8-10.7l22.7,8.1L416.9,293.5z"/>
		<circle class="st0" cx="215.7" cy="485.5" r="7.8"/>
		<path class="st0" d="M464.7,315.8c0,0,13.3-5.7,16.3-7.4c4-2.3,7.9-5.4,12.1-9.5c24.2-24.2,25.4-63.2,2.8-88.8
			c-1.7-2-4.4-2.9-7-2.4c-2.6,0.5-4.7,2.3-5.6,4.7l-17.8,48.1l-13.3-4.9l18.8-51.1c0.9-2.5,0.5-5.2-1.2-7.3c-1.6-2-4.3-3.1-6.9-2.7
			c-25.3,3.5-45.8,21.4-53,45.4l-30.8-11.4c-2.1-0.8-4.4-0.6-6.3,0.5c-1.9,1.1-3.3,3-3.7,5.1l-7.1,38.4c-3.3,18-11.1,34.5-22.6,48.5
			l-0.3-0.3l-10.4,10.7l0.5,0.5l-15.4,15.4l-0.4-0.4l-10.4,10.7l0.2,0.2l-19.5,19.5l-2,2.1h0l-86.8,86.8c-5.3,5.3-8.3,12.4-8.3,20
			c0,7.6,2.9,14.7,8.3,20c5.5,5.5,12.8,8.3,20,8.3c7.2,0,14.5-2.8,20-8.3l83.5-83.5l24.8-24.8l10.6-10.6h0l15.4-15.4l10.6-10.6
			l2.1-2.1c9.8-9.8,21.3-17.5,34-22.9L464.7,315.8z M451.7,213L438,250.4l-14.2-5.3C427.8,230.6,438.2,218.9,451.7,213z
			 M371.1,348.7l-147,147c-2.5,2.5-5.9,3.9-9.4,3.9c-3.6,0-6.9-1.4-9.4-3.9c-5.2-5.2-5.2-13.7,0-18.9L343,339.1
			c17.5-17.5,29.1-39.5,33.6-63.8l5.5-29.6l85.1,31.5c3.9,1.4,8.2-0.5,9.6-4.4l15.4-41.4c9,18.7,5.7,41.7-9.7,57
			c-3.2,3.2-6.1,5.5-8.9,7.1c-1.7,1-15.6,7-15.6,7l-48,20.2C395.3,328.7,382.3,337.5,371.1,348.7z"/>
		<polygon class="st0" points="283.5,377.4 281.4,379.5 281.5,379.5 		"/>
	</g>
</g>
</svg>
